<?xml version="1.0" encoding="UTF-8" standalone="no"?>
<svg
   xmlns:dc="http://purl.org/dc/elements/1.1/"
   xmlns:cc="http://creativecommons.org/ns#"
   xmlns:rdf="http://www.w3.org/1999/02/22-rdf-syntax-ns#"
   xmlns:svg="http://www.w3.org/2000/svg"
   xmlns="http://www.w3.org/2000/svg"
   xmlns:sodipodi="http://sodipodi.sourceforge.net/DTD/sodipodi-0.dtd"
   xmlns:inkscape="http://www.inkscape.org/namespaces/inkscape"
   viewBox="0 0 22 22"
   version="1.1"
   id="svg8"
   sodipodi:docname="audio-input-microphone-medium-symbolic.svg"
   inkscape:version="0.92.0 r">
  <metadata
     id="metadata12">
    <rdf:RDF>
      <cc:Work
         rdf:about="">
        <dc:format>image/svg+xml</dc:format>
        <dc:type
           rdf:resource="http://purl.org/dc/dcmitype/StillImage" />
      </cc:Work>
    </rdf:RDF>
  </metadata>
  <sodipodi:namedview
     pagecolor="#ffffff"
     bordercolor="#666666"
     borderopacity="1"
     objecttolerance="10"
     gridtolerance="10"
     guidetolerance="10"
     inkscape:pageopacity="0"
     inkscape:pageshadow="2"
     inkscape:window-width="1366"
     inkscape:window-height="739"
     id="namedview10"
     showgrid="false"
     inkscape:zoom="10.727273"
     inkscape:cx="-5.3601695"
     inkscape:cy="11"
     inkscape:window-x="0"
     inkscape:window-y="0"
     inkscape:window-maximized="1"
     inkscape:current-layer="svg8" />
  <defs
     id="defs3051">
    <style
       type="text/css"
       id="current-color-scheme">
      .ColorScheme-Text {
        color:#f2f2f2;
      }
      </style>
  </defs>
  <path
     id="path17"
     style="fill:#f4b400;fill-opacity:0.99528301;stroke-width:0.47352397"
     d="m 10.999999,0.09531461 c 6.007656,0 10.877436,4.88198089 10.877436,10.90468539 0,6.022707 -4.86978,10.904685 -10.877436,10.904685 C 4.9923451,21.904685 0.12256481,17.022707 0.12256481,11 0.12256481,4.9772955 4.9923451,0.09531461 10.999999,0.09531461 Z"
     inkscape:connector-curvature="0" />
  <path
     style="opacity:1;fill:currentColor;fill-opacity:1;stroke:none"
     d="M 11,8 C 9.892,8 9,8.892 9,10 l 0,3 c 0,1.108 0.892,2 2,2 1.108,0 2,-0.892 2,-2 l 0,-3 C 13,8.892 12.108,8 11,8 Z m -4,4 0,1 c 0,1.8474 1.2856599,3.404769 3,3.855469 L 10,18 l -1,0 0,1 4,0 0,-1 -1,0 0,-1.144531 C 13.71434,16.404769 15,14.8474 15,13 l 0,-1 -1,0 0,1 c 0,1.6447 -1.355297,3 -3,3 -1.6447028,0 -3,-1.3553 -3,-3 l 0,-1 -1,0 z"
     id="path4226"
     class="ColorScheme-Text" />
  <path
     style="opacity:1;fill:currentColor;fill-opacity:1;stroke:none"
     d="M 10.998047,6 C 9.7488575,6.0040669 8.5243181,6.4572748 7.4570312,7.3105469 l 0.4863282,0.78125 C 8.8704993,7.3800621 9.9243784,7.0033879 10.998047,7 c 1.074196,0.00234 2.128784,0.378355 3.056641,1.0898438 l 0.488281,-0.78125 C 13.474397,6.4551048 12.248423,6.0025413 10.998047,6 Z"
     id="path5"
     class="ColorScheme-Text" />
  <path
     style="opacity:0.25;fill:currentColor;fill-opacity:1;stroke:none"
     d="M 10.998047,3 C 9.2216495,3.0037241 7.4846683,3.6886064 6,4.9707031 L 6.4804688,5.7421875 C 7.8284632,4.6051569 9.3963799,4.0004956 10.998047,4 c 1.600931,0.00381 3.167435,0.6111594 4.513672,1.75 L 16,4.9667969 C 14.513893,3.6851216 12.775473,3.0015645 10.998047,3 Z"
     id="path4183"
     class="ColorScheme-Text" />
</svg>
