<?xml version="1.0" encoding="UTF-8" standalone="no"?>
<svg
   xmlns:dc="http://purl.org/dc/elements/1.1/"
   xmlns:cc="http://creativecommons.org/ns#"
   xmlns:rdf="http://www.w3.org/1999/02/22-rdf-syntax-ns#"
   xmlns:svg="http://www.w3.org/2000/svg"
   xmlns="http://www.w3.org/2000/svg"
   xmlns:sodipodi="http://sodipodi.sourceforge.net/DTD/sodipodi-0.dtd"
   xmlns:inkscape="http://www.inkscape.org/namespaces/inkscape"
   width="16"
   version="1.1"
   height="16"
   id="svg11"
   sodipodi:docname="network-vpn.svg"
   inkscape:version="0.92.0 r">
  <metadata
     id="metadata17">
    <rdf:RDF>
      <cc:Work
         rdf:about="">
        <dc:format>image/svg+xml</dc:format>
        <dc:type
           rdf:resource="http://purl.org/dc/dcmitype/StillImage" />
      </cc:Work>
    </rdf:RDF>
  </metadata>
  <defs
     id="defs15" />
  <sodipodi:namedview
     pagecolor="#ffffff"
     bordercolor="#666666"
     borderopacity="1"
     objecttolerance="10"
     gridtolerance="10"
     guidetolerance="10"
     inkscape:pageopacity="0"
     inkscape:pageshadow="2"
     inkscape:window-width="1366"
     inkscape:window-height="739"
     id="namedview13"
     showgrid="false"
     inkscape:zoom="14.75"
     inkscape:cx="3.8174513"
     inkscape:cy="13.423729"
     inkscape:window-x="0"
     inkscape:window-y="0"
     inkscape:window-maximized="1"
     inkscape:current-layer="svg11" />
  <path
     id="path17"
     style="fill:#f4b400;fill-opacity:0.99056602;stroke-width:0.34504503"
     d="m 8.0338977,0.08644907 c 4.3955613,0 7.9585853,3.54286283 7.9585853,7.91355143 0,4.3706885 -3.563024,7.9135515 -7.9585853,7.9135515 -4.3955603,0 -7.95858462,-3.542863 -7.95858462,-7.9135515 0,-4.3706886 3.56302432,-7.91355143 7.95858462,-7.91355143 z"
     inkscape:connector-curvature="0" />
  <g
     style="stroke:none;color:#bebebe"
     id="layer9"
     transform="translate(-221.0002,-237)">
    <g
       style="font-family:Sans;text-align:start;line-height:normal;text-indent:0;text-transform:none"
       id="g7">
      <path
         style="fill:#b4b4b4;stroke-width:3"
         id="path13314"
         d="m 229,238.0004 c -1.64501,0 -3,1.355 -3,3 v 2 1.00001 h 1 4 1 v -1.00001 -2 c 0,-1.645 -1.35499,-3 -3,-3 z  m 0,2 c 0.56413,0 1,0.43588 1,1 v 1 h -2 v -1 c 0,-0.56412 0.43587,-1 1,-1 z " />
      <g
         style="fill:#a0a0a0;stroke-width:2"
         id="g5">
        <path
           id="path12679-6"
           d="m 228,247 0,3 2,0 0,-3 -2,0 z" />
        <path
           id="path12681-3"
           d="m 223,250 0,2 12,0 0,-2 -12,0 z" />
      </g>
    </g>
    <rect
       width="8"
       x="224.99995"
       y="242"
       rx="0"
       height="6"
       ry="0"
       style="fill:#dca100"
       id="rect13312" />
  </g>
</svg>
