<?xml version="1.0" encoding="UTF-8" standalone="no"?>
<svg
   xmlns:dc="http://purl.org/dc/elements/1.1/"
   xmlns:cc="http://creativecommons.org/ns#"
   xmlns:rdf="http://www.w3.org/1999/02/22-rdf-syntax-ns#"
   xmlns:svg="http://www.w3.org/2000/svg"
   xmlns="http://www.w3.org/2000/svg"
   xmlns:sodipodi="http://sodipodi.sourceforge.net/DTD/sodipodi-0.dtd"
   xmlns:inkscape="http://www.inkscape.org/namespaces/inkscape"
   viewBox="0 0 16 16"
   version="1.1"
   id="svg6"
   sodipodi:docname="sidebar.svg"
   inkscape:version="0.92.0 r">
  <metadata
     id="metadata12">
    <rdf:RDF>
      <cc:Work
         rdf:about="">
        <dc:format>image/svg+xml</dc:format>
        <dc:type
           rdf:resource="http://purl.org/dc/dcmitype/StillImage" />
      </cc:Work>
    </rdf:RDF>
  </metadata>
  <defs
     id="defs10" />
  <sodipodi:namedview
     pagecolor="#ffffff"
     bordercolor="#666666"
     borderopacity="1"
     objecttolerance="10"
     gridtolerance="10"
     guidetolerance="10"
     inkscape:pageopacity="0"
     inkscape:pageshadow="2"
     inkscape:window-width="1366"
     inkscape:window-height="739"
     id="namedview8"
     showgrid="false"
     inkscape:zoom="10.429825"
     inkscape:cx="-12.730181"
     inkscape:cy="9.3479492"
     inkscape:window-x="0"
     inkscape:window-y="0"
     inkscape:window-maximized="1"
     inkscape:current-layer="svg6" />
  <path
     id="path17"
     style="fill:#2980b9;fill-opacity:1;stroke-width:0.34483066"
     d="m 8.0386158,0.12630517 c 4.4123242,0 7.9889352,3.52501933 7.9889352,7.87369523 0,4.3486756 -3.576611,7.8736956 -7.9889352,7.8736956 -4.4123222,0 -7.98893372,-3.52502 -7.98893372,-7.8736956 0,-4.3486759 3.57661152,-7.87369523 7.98893372,-7.87369523 z"
     inkscape:connector-curvature="0" />
  <path
     inkscape:connector-curvature="0"
     d="M 2.0639713,1.6711522 C 1.8271528,1.6971733 1.6283222,1.9439253 1.6299387,2.2086229 V 13.696498 c 0,0.281746 0.2303525,0.537471 0.4849526,0.537471 H 14.077864 c 0.253792,0 0.484953,-0.254828 0.484953,-0.537471 V 2.2086229 c 0,-0.2817459 -0.230353,-0.5374707 -0.484953,-0.5374707 M 2.4390013,3.4657121 H 13.754562 V 13.319641 H 2.4390013 Z"
     style="fill:#888888;fill-opacity:1;stroke-width:0.85160464"
     id="path2" />
  <rect
     width="3.2330174"
     height="8.0755196"
     x="9.7124825"
     y="4.3629923"
     style="opacity:1;fill:#e6e6e6;fill-opacity:1;stroke:none;stroke-width:0.85160464"
     id="rect4" />
</svg>
