<?xml version="1.0" encoding="UTF-8" standalone="no"?>
<svg
   xmlns:dc="http://purl.org/dc/elements/1.1/"
   xmlns:cc="http://creativecommons.org/ns#"
   xmlns:rdf="http://www.w3.org/1999/02/22-rdf-syntax-ns#"
   xmlns:svg="http://www.w3.org/2000/svg"
   xmlns="http://www.w3.org/2000/svg"
   xmlns:sodipodi="http://sodipodi.sourceforge.net/DTD/sodipodi-0.dtd"
   xmlns:inkscape="http://www.inkscape.org/namespaces/inkscape"
   width="48"
   version="1.1"
   height="48"
   id="svg8"
   sodipodi:docname="audio-mpeg.svg"
   inkscape:version="0.92.0 r">
  <metadata
     id="metadata14">
    <rdf:RDF>
      <cc:Work
         rdf:about="">
        <dc:format>image/svg+xml</dc:format>
        <dc:type
           rdf:resource="http://purl.org/dc/dcmitype/StillImage" />
      </cc:Work>
    </rdf:RDF>
  </metadata>
  <defs
     id="defs12" />
  <sodipodi:namedview
     pagecolor="#ffffff"
     bordercolor="#666666"
     borderopacity="1"
     objecttolerance="10"
     gridtolerance="10"
     guidetolerance="10"
     inkscape:pageopacity="0"
     inkscape:pageshadow="2"
     inkscape:window-width="1366"
     inkscape:window-height="739"
     id="namedview10"
     showgrid="false"
     inkscape:zoom="4.9166667"
     inkscape:cx="-11.694915"
     inkscape:cy="24"
     inkscape:window-x="0"
     inkscape:window-y="0"
     inkscape:window-maximized="1"
     inkscape:current-layer="svg8" />
  <path
     id="path17"
     style="fill:#00a027;fill-opacity:0.95754719;stroke-width:1.03995812"
     d="m 23.999999,0.22204219 c 13.176266,0 23.856891,10.73634581 23.856891,23.98134781 0,13.245002 -10.680625,23.981348 -23.856891,23.981348 -13.176262,0 -23.85688899,-10.736346 -23.85688899,-23.981348 0,-13.245002 10.68062699,-23.98134781 23.85688899,-23.98134781 z"
     inkscape:connector-curvature="0" />
  <rect
     id="rect824"
     style="fill:#00a027;stroke:none"
     height="36.745777"
     y="5.6271362"
     x="4.4999928"
     width="39.000011" />
  <path
     inkscape:connector-curvature="0"
     d="m 24.00199,15 v 12.8359 c -0.54474,-0.50772 -1.2551,-0.83598 -2.00196,-0.83593 -1.5709,9e-5 -2.99804,1.42933 -2.99804,3 0,1.57067 1.42714,2.9999 2.99804,3 1.57091,9e-5 3.00196,-1.42916 3.00196,-3 v -10.6152 c 2.09244,1.25511 3.39648,3.55901 3.39648,6.01563 0,0.63161 -0.10429,1.25103 -0.28712,1.84765 0.56004,-0.98918 0.88672,-2.10262 0.88672,-3.24804 0,-1.83447 -0.62808,-3.58424 -1.92383,-4.875 -0.59781,-0.59552 -2.05044,-1.6979 -2.07226,-4.07422 v -0.0508 h -0.004 -0.99609 z"
     id="path4112"
     style="fill:#ffffff;fill-rule:evenodd;stroke:none" />
  <path
     inkscape:connector-curvature="0"
     d="m 18.91989,35.3516 q 0.26563,-0.40625 0.62891,-0.61719 0.36719,-0.21484 0.80469,-0.21484 0.7539,0 1.14844,0.46484 0.39453,0.46485 0.39453,1.35157 v 2.66406 h -1.40625 v -2.28125 q 0.004,-0.0508 0.004,-0.10547 0.004,-0.0547 0.004,-0.15625 0,-0.46484 -0.13672,-0.67187 -0.13672,-0.21094 -0.44141,-0.21094 -0.39843,0 -0.61718,0.32812 -0.21485,0.32813 -0.22266,0.94922 v 2.14844 h -1.40625 v -2.28125 q 0,-0.72656 -0.125,-0.93359 -0.125,-0.21094 -0.44531,-0.21094 -0.40235,0 -0.6211,0.33203 -0.21875,0.32812 -0.21875,0.94141 v 2.15234 h -1.40625 v -4.375 h 1.40625 v 0.64062 q 0.25782,-0.37109 0.58985,-0.55859 0.33594,-0.1875 0.73828,-0.1875 0.45312,0 0.80078,0.21875 0.34766,0.21875 0.52734,0.61328 z"
     id="path4142"
     style="fill:#ffffff;stroke:none" />
  <path
     inkscape:connector-curvature="0"
     d="m 24.60739,38.3672 v 2.2969 h -1.3984 V 34.625 h 1.3984 v 0.6406 q 0.28907,-0.38281 0.64063,-0.5625 0.35156,-0.18359 0.80859,-0.18359 0.8086,0 1.32813,0.64453 0.51953,0.64063 0.51953,1.65235 0,1.01171 -0.51953,1.65625 -0.51953,0.64062 -1.32813,0.64062 -0.45703,0 -0.80859,-0.17969 -0.35156,-0.18359 -0.64063,-0.5664 z m 0.9297,-2.832 q -0.44922,0 -0.6914,0.33203 -0.23829,0.32812 -0.23829,0.94922 0,0.62109 0.23829,0.95312 0.24218,0.32813 0.6914,0.32813 0.44922,0 0.6836,-0.32813 0.23828,-0.32812 0.23828,-0.95312 0,-0.625 -0.23828,-0.95313 -0.23438,-0.32812 -0.6836,-0.32812 z"
     id="path4144"
     style="fill:#ffffff;stroke:none" />
  <path
     inkscape:connector-curvature="0"
     d="m 31.99799,35.8555 q 0.58984,0.15234 0.89453,0.53125 0.30859,0.375 0.30859,0.95703 0,0.86719 -0.66406,1.32031 -0.66406,0.44922 -1.9375,0.44922 -0.44922,0 -0.90234,-0.0742 -0.44922,-0.0703 -0.89063,-0.21484 v -1.16016 q 0.42188,0.21094 0.83594,0.32031 0.41797,0.10547 0.82031,0.10547 0.59766,0 0.91407,-0.20703 0.32031,-0.20703 0.32031,-0.59375 0,-0.39844 -0.32813,-0.60156 -0.32422,-0.20703 -0.96093,-0.20703 h -0.60157 v -0.96875 h 0.63282 q 0.5664,0 0.84375,-0.17578 0.27734,-0.17969 0.27734,-0.54297 0,-0.33594 -0.26953,-0.51953 -0.26953,-0.1836 -0.76172,-0.1836 -0.36328,0 -0.73438,0.082 -0.37109,0.082 -0.73828,0.24219 v -1.10156 q 0.44532,-0.125 0.88282,-0.1875 0.4375,-0.0625 0.85937,-0.0625 1.13672,0 1.69922,0.375 0.56641,0.37109 0.56641,1.12109 0,0.51172 -0.26954,0.83985 -0.26953,0.32422 -0.79687,0.45703 z"
     id="path4146"
     style="fill:#ffffff;stroke:none" />
</svg>
