<?xml version="1.0" encoding="UTF-8" standalone="no"?>
<svg
   xmlns:dc="http://purl.org/dc/elements/1.1/"
   xmlns:cc="http://creativecommons.org/ns#"
   xmlns:rdf="http://www.w3.org/1999/02/22-rdf-syntax-ns#"
   xmlns:svg="http://www.w3.org/2000/svg"
   xmlns="http://www.w3.org/2000/svg"
   xmlns:sodipodi="http://sodipodi.sourceforge.net/DTD/sodipodi-0.dtd"
   xmlns:inkscape="http://www.inkscape.org/namespaces/inkscape"
   width="48"
   version="1.1"
   height="48"
   id="svg15"
   sodipodi:docname="application-x-lyx.svg"
   inkscape:version="0.92.0 r">
  <metadata
     id="metadata21">
    <rdf:RDF>
      <cc:Work
         rdf:about="">
        <dc:format>image/svg+xml</dc:format>
        <dc:type
           rdf:resource="http://purl.org/dc/dcmitype/StillImage" />
      </cc:Work>
    </rdf:RDF>
  </metadata>
  <defs
     id="defs19" />
  <sodipodi:namedview
     pagecolor="#ffffff"
     bordercolor="#666666"
     borderopacity="1"
     objecttolerance="10"
     gridtolerance="10"
     guidetolerance="10"
     inkscape:pageopacity="0"
     inkscape:pageshadow="2"
     inkscape:window-width="1366"
     inkscape:window-height="739"
     id="namedview17"
     showgrid="false"
     inkscape:zoom="4.9166667"
     inkscape:cx="-11.694915"
     inkscape:cy="24"
     inkscape:window-x="0"
     inkscape:window-y="0"
     inkscape:window-maximized="1"
     inkscape:current-layer="g3801" />
  <g
     id="g3801"
     transform="translate(68.564396,-4.057433)">
    <path
       id="path17"
       style="fill:#2980b9;fill-opacity:1;stroke-width:1.03995812"
       d="m -44.564397,4.2794745 c 13.176266,0 23.856891,10.7363465 23.856891,23.9813485 0,13.245002 -10.680625,23.981348 -23.856891,23.981348 -13.176267,0 -23.856887,-10.736346 -23.856887,-23.981348 0,-13.245002 10.68062,-23.9813485 23.856887,-23.9813485 z"
       inkscape:connector-curvature="0" />
    <g
       id="g3838">
      <path
         transform="translate(-68.564396,4.057433)"
         d="m 4.5,5.6395 0,36.7185 39,0 0,-36.7458 -12.6177,.0273 z "
         id="rect4090"
         style="fill:#2980b9" />
      <g
         transform="matrix(1.0427247,0,0,0.83446686,-69.589786,8.0277713)"
         id="g2989"
         style="fill:#ecf0f1">
        <path
           transform="translate(7,4)"
           d="M 0,0 0,40 34,40 34,-0.02968801 23,0 z"
           id="path2991" />
        <rect
           transform="translate(12.3038,16.1417)"
           id="rect2993"
           style="fill-rule:evenodd;stroke:#003bc3;stroke-linecap:square;stroke-width:0;stroke-miterlimit:2.013"
           height="3.1810868"
           y="0"
           x="0"
           width="23.362026" />
        <rect
           transform="translate(18.861,9.77954)"
           id="rect2995"
           style="fill-rule:evenodd;stroke:#003bc3;stroke-linecap:square;stroke-width:0;stroke-miterlimit:2"
           height="3.1810868"
           y="0"
           x="0"
           width="11.115499" />
        <rect
           transform="translate(12.2953,22.5039)"
           id="rect2997"
           style="fill-rule:evenodd;stroke:#003bc3;stroke-linecap:square;stroke-width:0;stroke-miterlimit:2"
           height="3.1810868"
           y="0"
           x="0"
           width="13.562757" />
        <rect
           transform="translate(12.3208,28.8661)"
           id="rect2999"
           style="fill-rule:evenodd;stroke:#003bc3;stroke-linecap:square;stroke-width:0;stroke-miterlimit:2"
           height="3.1810868"
           y="0"
           x="0"
           width="13.562757" />
        <rect
           transform="translate(12.3307,35.2282)"
           id="rect3001"
           style="fill-rule:evenodd;stroke:#003bc3;stroke-linecap:square;stroke-width:0;stroke-miterlimit:2"
           height="3.1810868"
           y="0"
           x="0"
           width="23.362026" />
        <rect
           transform="translate(29.0863,22.4914)"
           id="rect3003"
           style="fill-rule:evenodd;stroke:#003bc3;stroke-linecap:square;stroke-width:0;stroke-miterlimit:2.013"
           height="9.5378857"
           y="0"
           x="0"
           width="6.5734076" />
      </g>
      <path
         d="m -39.0956,19.5105 2.5,6.5625 -3.6875,5.125 3.1562,1 2.1562,-3.125 .9688,3.6875 4.3125,.3438 -2.3125,-6.6562 3.875,-4.7812 -3.9688,-.875 -1.625,2.5 -1.1562,-3.0625 -4.2188,-.7188 z "
         id="path3012"
         style="fill:#cb3300;fill-rule:evenodd;stroke:none" />
      <path
         d="m -57.2831,21.4793 -.0938,.125 -3.625,1.7188 4.7812,11.0312 7.6562,-3.7812 -1.5625,-3.2188 -3.7188,1.875 -3.4375,-7.75 z "
         id="path3010"
         style="fill:#007fff;fill-rule:evenodd;stroke:none" />
      <path
         d="m -50.8769,22.5418 3.625,7.9062 -.7812,5.4375 4.5,.7188 1.0938,-6.0625 4.4375,-6.3125 -3.7188,-.5312 -2.4062,3.3125 -1.9688,-3.8125 -4.7812,-.6562 z "
         id="path3001"
         style="fill:#e6ae00;fill-rule:evenodd;stroke:none" />
    </g>
  </g>
</svg>
