<?xml version="1.0" encoding="UTF-8" standalone="no"?>
<svg
   xmlns:dc="http://purl.org/dc/elements/1.1/"
   xmlns:cc="http://creativecommons.org/ns#"
   xmlns:rdf="http://www.w3.org/1999/02/22-rdf-syntax-ns#"
   xmlns:svg="http://www.w3.org/2000/svg"
   xmlns="http://www.w3.org/2000/svg"
   xmlns:sodipodi="http://sodipodi.sourceforge.net/DTD/sodipodi-0.dtd"
   xmlns:inkscape="http://www.inkscape.org/namespaces/inkscape"
   viewBox="0 0 22 22"
   version="1.1"
   id="svg12"
   sodipodi:docname="archive-remove.svg"
   inkscape:version="0.92.0 r">
  <metadata
     id="metadata18">
    <rdf:RDF>
      <cc:Work
         rdf:about="">
        <dc:format>image/svg+xml</dc:format>
        <dc:type
           rdf:resource="http://purl.org/dc/dcmitype/StillImage" />
      </cc:Work>
    </rdf:RDF>
  </metadata>
  <defs
     id="defs16" />
  <sodipodi:namedview
     pagecolor="#ffffff"
     bordercolor="#666666"
     borderopacity="1"
     objecttolerance="10"
     gridtolerance="10"
     guidetolerance="10"
     inkscape:pageopacity="0"
     inkscape:pageshadow="2"
     inkscape:window-width="1366"
     inkscape:window-height="739"
     id="namedview14"
     showgrid="false"
     inkscape:zoom="10.727273"
     inkscape:cx="-5.3601695"
     inkscape:cy="11"
     inkscape:window-x="0"
     inkscape:window-y="0"
     inkscape:window-maximized="1"
     inkscape:current-layer="svg12" />
  <g
     transform="matrix(1.03896 0 0 1.03896 -.42857 -.42857)"
     id="g8">
    <path
       d="m 2.477 1.375 c -0.551 0 -1.102 0.551 -1.102 1.102 l 0 17.08 c 0 0.52 0.551 1.07 1.07 1.07 l 17.11 0 c 0.52 0 1.07 -0.551 1.07 -1.07 l 0 -17.11 c 0 -0.52 -0.551 -1.07 -1.07 -1.07 z"
       style="fill:#c19553"
       id="path2" />
    <path
       d="m 2.477 1.375 c -0.551 0 -1.102 0.551 -1.102 1.102 l 0 6.598 c 2.137 0 17.11 0 19.25 0 l 0 -6.63 c 0 -0.52 -0.551 -1.07 -1.07 -1.07 z"
       style="fill:#fff;fill-opacity:0.196"
       id="path4" />
    <path
       d="m 11 3.3 -1.925 0 0 -1.925 1.925 0 0 3.85 -1.925 0 0 1.925 1.925 0 0 3.866 l -1.925 -0.016 l 0 3.85 3.85 0 0 -3.85 -1.925 0.016 0 -1.941 1.925 0 0 -1.925 -1.925 0 0 -1.925 1.925 0 0 -1.925 -1.925 0 z"
       style="fill:#fff"
       id="path6" />
  </g>
</svg>
