<?xml version="1.0" encoding="UTF-8" standalone="no"?>
<svg
   xmlns:dc="http://purl.org/dc/elements/1.1/"
   xmlns:cc="http://creativecommons.org/ns#"
   xmlns:rdf="http://www.w3.org/1999/02/22-rdf-syntax-ns#"
   xmlns:svg="http://www.w3.org/2000/svg"
   xmlns="http://www.w3.org/2000/svg"
   xmlns:sodipodi="http://sodipodi.sourceforge.net/DTD/sodipodi-0.dtd"
   xmlns:inkscape="http://www.inkscape.org/namespaces/inkscape"
   viewBox="0 0 22 22"
   version="1.1"
   id="svg6"
   sodipodi:docname="player-time.svg"
   inkscape:version="0.92.0 r">
  <metadata
     id="metadata10">
    <rdf:RDF>
      <cc:Work
         rdf:about="">
        <dc:format>image/svg+xml</dc:format>
        <dc:type
           rdf:resource="http://purl.org/dc/dcmitype/StillImage" />
      </cc:Work>
    </rdf:RDF>
  </metadata>
  <sodipodi:namedview
     pagecolor="#ffffff"
     bordercolor="#666666"
     borderopacity="1"
     objecttolerance="10"
     gridtolerance="10"
     guidetolerance="10"
     inkscape:pageopacity="0"
     inkscape:pageshadow="2"
     inkscape:window-width="1366"
     inkscape:window-height="739"
     id="namedview8"
     showgrid="false"
     inkscape:zoom="10.727273"
     inkscape:cx="-5.3601695"
     inkscape:cy="11"
     inkscape:window-x="0"
     inkscape:window-y="0"
     inkscape:window-maximized="1"
     inkscape:current-layer="svg6" />
  <defs
     id="defs3051">
    <style
       type="text/css"
       id="current-color-scheme">
      .ColorScheme-Text {
        color:#f2f2f2;
      }
      .ColorScheme-Highlight {
        color:#3daee9;
      }
      </style>
  </defs>
  <path
     id="path17"
     style="fill:#be9efa;fill-opacity:0.99528301;stroke-width:0.47557318"
     d="M 11,0.06949914 C 17.045454,0.06949914 21.945873,4.9630372 21.945873,11 21.945873,17.036962 17.045454,21.9305 11,21.9305 4.9545476,21.9305 0.05412727,17.036962 0.05412727,11 0.05412727,4.9630372 4.9545476,0.06949914 11,0.06949914 Z"
     inkscape:connector-curvature="0" />
  <path
     style="fill:currentColor;fill-opacity:1;stroke:none"
     d="M 6.8769531 3 C 5.2125198 3.8561715 3.8561715 5.2125198 3 6.8769531 L 3 7 L 3.921875 7.3066406 C 4.6764786 5.8567461 5.8567461 4.6764786 7.3066406 3.921875 L 7 3 L 6.8769531 3 z M 15.005859 3 L 14.699219 3.921875 C 16.149109 4.676485 17.329374 5.8567506 18.083984 7.3066406 L 19.005859 7 L 19.005859 6.8769531 C 18.149689 5.2125231 16.793336 3.85617 15.128906 3 L 15.005859 3 z M 11 5 C 7.1220048 5 4 8.1220048 4 12 C 4 15.877995 7.1220048 19 11 19 C 14.877995 19 18 15.877995 18 12 C 18 8.1220048 14.877995 5 11 5 z M 11 6 C 14.323996 6 17 8.676004 17 12 C 17 15.323996 14.323996 18 11 18 C 7.676004 18 5 15.323996 5 12 C 5 8.676004 7.676004 6 11 6 z M 9 9 L 9 15 L 14 12 L 9 9 z "
     class="ColorScheme-Text"
     id="path4" />
</svg>
