<?xml version="1.0" encoding="UTF-8" standalone="no"?>
<svg
   xmlns:dc="http://purl.org/dc/elements/1.1/"
   xmlns:cc="http://creativecommons.org/ns#"
   xmlns:rdf="http://www.w3.org/1999/02/22-rdf-syntax-ns#"
   xmlns:svg="http://www.w3.org/2000/svg"
   xmlns="http://www.w3.org/2000/svg"
   xmlns:sodipodi="http://sodipodi.sourceforge.net/DTD/sodipodi-0.dtd"
   xmlns:inkscape="http://www.inkscape.org/namespaces/inkscape"
   viewBox="0 0 22 22"
   version="1.1"
   id="svg10"
   sodipodi:docname="format-text-uppercase.svg"
   inkscape:version="0.92.0 r">
  <metadata
     id="metadata14">
    <rdf:RDF>
      <cc:Work
         rdf:about="">
        <dc:format>image/svg+xml</dc:format>
        <dc:type
           rdf:resource="http://purl.org/dc/dcmitype/StillImage" />
      </cc:Work>
    </rdf:RDF>
  </metadata>
  <sodipodi:namedview
     pagecolor="#ffffff"
     bordercolor="#666666"
     borderopacity="1"
     objecttolerance="10"
     gridtolerance="10"
     guidetolerance="10"
     inkscape:pageopacity="0"
     inkscape:pageshadow="2"
     inkscape:window-width="1366"
     inkscape:window-height="739"
     id="namedview12"
     showgrid="false"
     inkscape:zoom="10.727273"
     inkscape:cx="-5.3601695"
     inkscape:cy="11"
     inkscape:window-x="0"
     inkscape:window-y="0"
     inkscape:window-maximized="1"
     inkscape:current-layer="svg10" />
  <defs
     id="defs3051">
    <style
       type="text/css"
       id="current-color-scheme">
      .ColorScheme-Text {
        color:#f2f2f2;
      }
      .ColorScheme-Highlight {
        color:#3daee9;
      }
      </style>
  </defs>
  <path
     id="path17"
     style="fill:#2980b9;fill-opacity:1;stroke-width:0.4765861"
     d="m 11.04661,0.06949919 c 6.045454,0 10.945873,4.91440521 10.945873,10.97711081 0,6.062706 -4.900419,10.977111 -10.945873,10.977111 -6.0454525,0 -10.94587276,-4.914405 -10.94587276,-10.977111 0,-6.0627056 4.90042026,-10.97711081 10.94587276,-10.97711081 z"
     inkscape:connector-curvature="0" />
  <g
     transform="translate(-421.71429,-525.79074)"
     id="g8">
    <path
       style="fill:currentColor;fill-opacity:1;stroke:none"
       d="M 4.828125 7 L 0.65429688 19 L 1.6621094 19 L 3.1582031 15 L 8.3652344 15 L 9.8554688 19 L 11 19 L 6.7695312 7 L 4.828125 7 z M 12 7 L 12 19 L 13 19 L 18 19 A 3.5 3.5 0 0 0 21.5 15.5 A 3.5 3.5 0 0 0 19.066406 12.169922 A 3 3 0 0 0 20 10 A 3 3 0 0 0 17 7 L 13 7 L 12 7 z M 13 8 L 17 8 A 2 2 0 0 1 19 10 A 2 2 0 0 1 17 12 L 13 12 L 13 8 z M 5.7675781 8.0292969 L 7.9921875 14 L 3.5332031 14 L 5.7675781 8.0292969 z M 13 13 L 18 13 A 2.5 2.5 0 0 1 20.5 15.5 A 2.5 2.5 0 0 1 18 18 L 13 18 L 13 13 z "
       transform="translate(421.71429,525.79074)"
       class="ColorScheme-Text"
       id="path4" />
    <path
       style="fill:currentColor;fill-opacity:1;stroke:none"
       d="m 434.71429,531.79074 3,-4 3,4 z"
       class="ColorScheme-Highlight"
       id="path6" />
  </g>
</svg>
